# xmcd CD database file
#
# Track frame offsets:
#	150
#	22925
#	45480
#	68322
#	90955
#	113437
#	133510
#	151007
#
# Disc length: 2269 seconds
#
# Revision: 0
# Processed by: cddbd v1.5.1PL2 Copyright (c) Steve Scherf et al.
# Submitted via: CDex 1.51
#
DISCID=4508db08
DTITLE=Various Artist - 100% Salsa Vol.3
DYEAR=1997
DGENRE=Salsa
TTITLE0=Amor A Primera Vista
TTITLE1=Haremos El Amor
TTITLE2=Payaso
TTITLE3=Cuando Aprenda De Los Maestros
TTITLE4=Nunca Voy A Olvidarte
TTITLE5=Cuestion De Epoca
TTITLE6=Mi Fanatica Amor
TTITLE7=Si Tu Te Vas
EXTD=YEAR: 1997
EXTT0=
EXTT1=
EXTT2=
EXTT3=
EXTT4=
EXTT5=
EXTT6=
EXTT7=
PLAYORDER=
